<svg width="873.44925" height="590.28138" xmlns="http://www.w3.org/2000/svg" data-name="Layer 1">
 <title>Drawing</title>

 <g>
  <title>Layer 1</title>
  <path id="svg_2" fill="#3f3d56" d="m639.37107,576.99156l-384.83376,0a47.58312,47.58312 0 0 1 -47.58312,-47.58312l0,-176.31175a18.85083,18.85083 0 0 1 5.88232,-13.68106l203.92382,-193.30281a43.88936,43.88936 0 0 1 60.38773,0l194.43057,184.30396a49.27354,49.27354 0 0 1 15.37558,35.76045l0,163.23121a47.58312,47.58312 0 0 1 -47.58314,47.58312z"/>
  <path id="svg_3" opacity="0.1" d="m206.95419,355.99156l476,0a0,0 0 0 1 0,0l0,192.26772a28.73228,28.73228 0 0 1 -28.73228,28.73228l-418.53544,0a28.73228,28.73228 0 0 1 -28.73228,-28.73228l0,-192.26772a0,0 0 0 1 0,0z"/>
  <path id="svg_4" stroke-miterlimit="10" stroke="#3f3d56" fill="none" d="m260.45419,350.49156"/>
  <rect id="svg_5" fill="#ff4b4b" rx="26.1811" height="354" width="354" y="204.49156" x="269.45419"/>
  <polygon id="svg_6" opacity="0.1" points="623.4539794921875,363.9419860839844 623.4539794921875,558.4920043945312 269.4540100097656,558.4920043945312 269.4540100097656,363.9419860839844 446.4540100097656,449.49200439453125 623.4539794921875,363.9419860839844 "/>
  <path id="svg_7" fill="#3f3d56" d="m446.45419,460.49156l-226.7938,-109.617a9.20185,9.20185 0 0 0 -13.2062,8.28487l0,188.59984a28.73228,28.73228 0 0 0 28.73228,28.73229l422.53544,0a28.73228,28.73228 0 0 0 28.73228,-28.73229l0,-185.369a11.22869,11.22869 0 0 0 -16.11507,-10.10975l-223.88493,108.21104z"/>
  <rect id="svg_8" fill="#f2f2f2" height="14" width="99" y="236.99156" x="299.95419"/>
  <rect id="svg_9" fill="#f2f2f2" height="8" width="294" y="287.99156" x="291.95419"/>
  <rect id="svg_10" fill="#f2f2f2" height="8" width="294" y="314.99156" x="291.95419"/>
  <rect id="svg_11" fill="#f2f2f2" height="8" width="294" y="341.99156" x="291.95419"/>
  <line id="svg_12" stroke-miterlimit="10" stroke="#3f3d56" fill="none" y2="576.49156" x2="850.95419" y1="576.49156" x1="26.95419"/>
  <path id="svg_18" opacity="0.2" d="m70.10238,575.18926c-13.241,0.10684 -30.76618,-2.06247 -34.29395,-4.21138c-2.68658,-1.6365 -3.75715,-7.50866 -4.11536,-10.21785c-0.24807,0.01067 -0.39153,0.01526 -0.39153,0.01526s0.74283,9.45882 4.2706,11.60772s21.053,4.31822 34.29394,4.21138c3.82216,-0.03082 5.14239,-1.39069 5.0699,-3.40477c-0.53098,1.21686 -1.98872,1.97671 -4.8336,1.99964z"/>
  <path id="svg_19" fill="#a0616a" d="m685.71309,130.77057c-0.601,5.35454 -4.68512,9.66782 -6.19838,14.83911c-2.27768,7.7835 1.66077,16.13589 7.04821,22.19775a49.15912,49.15912 0 0 0 34.23364,16.25457a14.60026,14.60026 0 0 0 5.66011,-0.61688a12.11641,12.11641 0 0 0 4.30628,-2.94292c4.05725,-4.07387 6.23518,-9.71852 7.10314,-15.40222s0.53065,-11.47415 0.19125,-17.21371a9.72062,9.72062 0 0 0 -0.636,-3.472a8.89613,8.89613 0 0 0 -2.23473,-2.74725a52.06975,52.06975 0 0 0 -9.58988,-6.96645a11.00876,11.00876 0 0 1 -4.01838,-3.07487a9.93708,9.93708 0 0 1 -1.24216,-3.68133l-1.05945,-5.39888a10.60905,10.60905 0 0 0 -1.55586,-4.37644c-1.8716,-2.52476 -5.4517,-2.86835 -8.5921,-2.99154l-11.50515,-0.45132c-3.57876,-0.14039 -8.29422,-1.16664 -11.78788,-0.46381c-3.26239,0.65631 -2.17872,3.66262 -1.58611,6.4a46.26659,46.26659 0 0 1 1.46345,10.10819z"/>
  <path id="svg_20" opacity="0.1" d="m685.71309,130.77057c-0.601,5.35454 -4.68512,9.66782 -6.19838,14.83911c-2.27768,7.7835 1.66077,16.13589 7.04821,22.19775a49.15912,49.15912 0 0 0 34.23364,16.25457a14.60026,14.60026 0 0 0 5.66011,-0.61688a12.11641,12.11641 0 0 0 4.30628,-2.94292c4.05725,-4.07387 6.23518,-9.71852 7.10314,-15.40222s0.53065,-11.47415 0.19125,-17.21371a9.72062,9.72062 0 0 0 -0.636,-3.472a8.89613,8.89613 0 0 0 -2.23473,-2.74725a52.06975,52.06975 0 0 0 -9.58988,-6.96645a11.00876,11.00876 0 0 1 -4.01838,-3.07487a9.93708,9.93708 0 0 1 -1.24216,-3.68133l-1.05945,-5.39888a10.60905,10.60905 0 0 0 -1.55586,-4.37644c-1.8716,-2.52476 -5.4517,-2.86835 -8.5921,-2.99154l-11.50515,-0.45132c-3.57876,-0.14039 -8.29422,-1.16664 -11.78788,-0.46381c-3.26239,0.65631 -2.17872,3.66262 -1.58611,6.4a46.26659,46.26659 0 0 1 1.46345,10.10819z"/>
  <path id="svg_21" fill="#605d82" d="m758.90118,371.78138q-2.445,26.80831 -4.88995,53.60833c-1.276,14.06068 -2.5767,28.179 -5.07928,42.05853c-0.86442,4.78292 -1.877,9.54118 -3.0789,14.25824c-3.34228,13.09747 -8.191,25.89859 -9.75518,39.32541c-0.04939,0.38689 -0.09054,0.782 -0.13169,1.17721a34.18858,34.18858 0 0 1 -1.67117,8.72615c-0.78207,2.04982 -1.984,3.91855 -2.83189,5.9437c-1.6876,4.05025 -1.90989,8.52859 -2.11569,12.91633a55.682,55.682 0 0 0 -19.17287,-6.55283c-3.25174,-0.48572 -6.87389,-0.83146 -9.08837,-3.26c-2.45324,-2.68372 -2.18156,-6.7916 -1.77,-10.39732q1.93871,-16.79373 3.86916,-33.571a87.49508,87.49508 0 0 1 2.44495,-14.25824c0.44458,-1.55591 0.97964,-3.08709 1.523,-4.61827c0.74911,-2.10745 1.50646,-4.21491 2.07449,-6.38a76.83184,76.83184 0 0 0 1.71232,-10.62784c1.32537,-11.2617 2.92243,-22.49872 4.32192,-33.75218l0.07411,-0.5927c2.09921,-17.05722 3.69627,-34.19674 3.23527,-51.37742c-0.06588,-2.54373 -0.1729,-5.08752 -0.33755,-7.63949c-0.23048,-3.69627 -0.568,-5.65554 2.49439,-7.9688c3.38344,-2.552 7.837,-4.33841 11.70622,-6.00957c2.08278,-0.90553 25.01778,-9.04722 25.55289,-7.26079a44.68761,44.68761 0 0 1 1.67936,11.70621a130.253,130.253 0 0 1 -0.76554,14.54634z"/>
  <path id="svg_22" opacity="0.1" d="m748.93195,467.44824c-0.86442,4.78292 -1.877,9.54118 -3.0789,14.25824c-3.34228,13.09747 -8.191,25.89859 -9.75518,39.32541c-0.04939,0.38689 -0.09054,0.782 -0.13169,1.17721c-10.22448,-14.604 -18.83537,-30.31111 -28.81283,-45.0715c0.74911,-2.10745 1.50646,-4.21491 2.07449,-6.38a76.83184,76.83184 0 0 0 1.71232,-10.62784c1.32537,-11.2617 2.92243,-22.49872 4.32192,-33.75218l0.07411,-0.5927a34.96361,34.96361 0 0 0 2.49434,6.92329c6.70106,13.61616 22.62218,20.4983 30.40989,33.52989q0.35808,0.60514 0.69153,1.21018z"/>
  <path id="svg_23" fill="#605d82" d="m665.96706,347.71869c0.3377,10.92082 2.08588,21.7431 3.83044,32.529l3.59945,22.25369c1.97,12.17951 4.021,24.60723 9.78472,35.516c4.31159,8.1603 10.52352,15.12375 16.14317,22.44494c13.81538,17.99845 24.19409,38.38691 37.2941,56.91253c3.80771,5.38475 9.25042,11.20813 15.74888,10.08377c4.265,-0.73794 7.36273,-4.28887 10.71526,-7.02668c3.95252,-3.22779 8.71623,-5.58965 11.82613,-9.63558s3.71922,-10.77111 -0.49409,-13.65018a22.22787,22.22787 0 0 0 -4.82237,-1.9732c-6.5315,-2.484 -10.75907,-8.86224 -13.449,-15.31167s-4.31969,-13.38425 -7.9041,-19.38282c-7.78691,-13.03154 -23.71031,-19.91338 -30.413,-33.53436c-3.75408,-7.62892 -4.11187,-16.42192 -4.39882,-24.91964l-0.7315,-21.66209c-0.08,-2.36887 -0.14258,-4.83257 0.82039,-6.99836c2.56385,-5.76625 10.30495,-6.30333 16.573,-7.03435a56.69225,56.69225 0 0 0 20.31009,-6.40789c3.61023,-1.94953 7.1373,-4.4348 9.06867,-8.05477c1.76206,-3.30264 2.00523,-7.17632 2.21186,-10.91391l2.17031,-39.25781c0.18672,-3.37751 0.357,-6.86976 -0.8334,-10.036c-2.98907,-7.95048 -13.02854,-10.54847 -21.51387,-10.16914c-15.79,0.70588 -30.36663,7.49823 -45.25462,12.08517a115.05456,115.05456 0 0 1 -11.21741,2.92585c-3.34132,0.67053 -7.38513,0.39231 -10.57188,1.46666c-5.66728,1.91063 -5.52338,14.30438 -6.327,19.44547a163.69345,163.69345 0 0 0 -2.16541,30.30537z"/>
  <path id="svg_24" fill="#535070" d="m750.22384,529.10459c1.39237,1.40419 1.8475,3.46135 2.2102,5.40529a184.59886,184.59886 0 0 1 3.126,32.69239a5.33848,5.33848 0 0 0 0.5884,2.9621a3.72149,3.72149 0 0 0 1.53793,1.23594c4.02424,1.918 8.69516,-0.755 12.04847,-3.69244c6.21628,-5.44542 11.47628,-12.75447 11.82936,-21.011a48.77937,48.77937 0 0 1 0.223,-6.37215c0.546,-3.10838 2.36113,-5.8167 3.96049,-8.53738a72.05271,72.05271 0 0 0 6.54513,-14.67185c0.61137,-1.92332 1.018,-4.34506 -0.48909,-5.68732a5.48164,5.48164 0 0 0 -1.79152,-0.93134l-18.17858,-6.74971c-1.57529,-0.5849 -5.49516,9.4843 -6.11731,10.5851c-1.52188,2.69268 -3.03512,4.2213 -6.08832,4.84284c-3.1166,0.63444 -6.82662,-0.27592 -9.73466,1.279c-4.91926,2.63026 -2.45482,5.84154 0.3305,8.65053z"/>
  <path id="svg_25" fill="#535070" d="m722.17392,535.31838a5.57414,5.57414 0 0 0 -1.38369,-1.75429a6.25861,6.25861 0 0 0 -2.791,-0.94819c-3.46078,-0.58762 -7.56272,-0.97454 -9.95133,1.59778c-2.2394,2.41165 -1.85441,6.34037 -3.72663,9.047c-0.59269,0.85684 -1.39574,1.563 -1.90961,2.4693a9.30993,9.30993 0 0 0 -0.83775,4.42893c-0.09663,4.19525 -0.19311,8.39762 0.09669,12.584c0.24285,3.508 0.83417,7.184 3.02788,9.93227c3.52105,4.4111 9.87152,5.04539 15.50833,5.33169l4.56525,0.23187a8.91225,8.91225 0 0 0 3.74132,-0.343a6.15883,6.15883 0 0 0 3.22709,-3.55063c2.37637,-5.90648 -1.387,-12.27007 -3.70516,-18.19964c-2.66445,-6.81553 -2.18601,-14.38328 -5.86139,-20.82709z"/>
  <path id="svg_26" fill="#3f3d56" d="m684.39042,100.59997a3.77334,3.77334 0 0 1 0.25666,-1.76012c0.66866,-1.18232 2.41466,-0.86054 3.73175,-0.52848c5.29676,1.33539 10.87785,0.1266 16.33143,0.43857s11.59665,3.03834 12.69318,8.38964a39.82421,39.82421 0 0 0 10.06862,-10.34535c1.51355,-2.265 2.83282,-4.85939 2.62677,-7.57576c-0.29719,-3.918 -3.58443,-6.8481 -6.62819,-9.33288l-9.07324,-7.407a13.67271,13.67271 0 0 0 -4.06246,-2.58282c-2.09521,-0.716 -4.38006,-0.37486 -6.59423,-0.37344c-6.60471,0.00423 -13.64661,-3.00157 -19.5207,0.01793c-2.45374,1.26131 -4.30061,3.42276 -6.081,5.53032l-8.098,9.5859a5.12052,5.12052 0 0 0 -1.29446,2.19511c-0.2304,1.17009 0.3705,2.32485 0.58019,3.49882c0.38251,2.14149 -0.53984,4.427 0.16927,6.48355c1.17723,3.41413 5.32258,3.89742 7.85686,5.8547c0.94454,0.72949 2.42487,3.20174 3.55025,3.17155c2.03051,-0.05447 3.43451,-3.68268 3.4873,-5.26024z"/>
  <circle id="svg_27" fill="#a0616a" r="25.93155" cy="102.92476" cx="698.13079"/>
  <path id="svg_28" fill="#3f3d56" d="m704.20442,159.67643a12.56174,12.56174 0 0 0 -12.22932,-8.41582a3.7289,3.7289 0 0 1 -2.25575,-0.28522a3.10914,3.10914 0 0 1 -0.92709,-1.1591a45.299,45.299 0 0 1 -3.781,-8.93851c-0.41369,-1.37256 -0.97941,-2.9907 -2.36783,-3.34755a3.19884,3.19884 0 0 0 -3.01844,1.313a26.58981,26.58981 0 0 1 -2.1574,2.71145c-3.2614,2.91612 -9.0427,0.25824 -12.50431,2.93364c-0.56543,0.437 -1.03207,0.99681 -1.62594,1.39432a7.59368,7.59368 0 0 1 -1.904,0.81631a182.62134,182.62134 0 0 0 -19.62613,7.68676c2.30257,13.86681 4.662,27.97538 10.05929,40.95459c2.56849,6.17666 5.47923,12.226 7.536,18.59135c4.55722,14.10366 4.75926,29.1939 4.81041,44.01546c0.035,10.14406 -0.01542,20.50469 -3.29738,30.10323a28.41193,28.41193 0 0 0 -1.85335,6.61282c-0.19821,2.28725 0.46757,4.80916 2.3208,6.16427a7.93825,7.93825 0 0 0 3.58127,1.25787c5.68676,0.83443 11.4198,-0.679 17.01925,-1.97579c15.00822,-3.47572 30.3148,-5.46459 45.592,-7.44823l25.59985,-3.324a14.86214,14.86214 0 0 0 5.29648,-1.36887c4.68448,-2.56485 5.1292,-9.61132 2.22012,-14.09017c-1.39464,-2.14721 -3.36235,-3.90874 -4.53416,-6.18523s-1.2716,-5.45988 0.7457,-7.03661c4.10347,-3.20729 2.87946,-9.15788 3.07517,-14.36239q0.82083,-21.82872 -0.2221,-43.67449a86.96161,86.96161 0 0 1 -0.14455,-9.058a80.21449,80.21449 0 0 1 2.82335,-15.11485l7.77873,-30.628c-2.03207,-3.21114 -5.9229,-5.24845 -9.6087,-6.17343s-7.52466,-1.19721 -11.15448,-2.322c-7.43628,-2.30427 -14.05665,-8.152 -21.82266,-7.607a3.96194,3.96194 0 0 0 -1.69137,0.413c-1.75152,0.99225 -1.47414,3.51636 -1.5861,5.52629c-0.2477,4.44687 -3.51839,8.16344 -7.13031,10.76921s-7.737,4.50583 -11.05439,7.47755a4.9332,4.9332 0 0 0 -1.96166,3.77414z"/>
  <path id="svg_29" fill="#a0616a" d="m601.45499,188.728a30.61494,30.61494 0 0 1 -5.45448,2.80657a17.92956,17.92956 0 0 0 -5.225,2.53569a8.18837,8.18837 0 0 0 -1.81691,2.24485a9.98315,9.98315 0 0 0 9.20559,14.874a20.03948,20.03948 0 0 0 6.80747,-2.02969l18.28997,-7.92563c3.09565,-1.34144 6.4396,-2.91352 7.90276,-5.95353a1.38319,1.38319 0 0 0 0.17808,-0.945a1.56222,1.56222 0 0 0 -0.75125,-0.78974a40.867,40.867 0 0 1 -10.64992,-10.04237c-0.75039,-1.01881 -1.66855,-3.42442 -2.72925,-4.03525c-3.87142,-2.22949 -12.65836,7.24913 -15.75706,9.2601z"/>
  <path id="svg_30" fill="#a0616a" d="m796.98244,182.22449l6.74313,7.70291c1.44763,1.65367 2.89681,3.30926 4.21639,5.06681a59.14092,59.14092 0 0 1 7.723,14.54934c1.46575,3.8462 2.6823,7.94307 2.17011,12.02711a29.422,29.422 0 0 1 -1.68654,6.11657a76.14173,76.14173 0 0 1 -4.582,11.03557a62.86551,62.86551 0 0 1 -5.15612,7.72692a180.44049,180.44049 0 0 1 -17.09361,19.55227c-2.3053,2.28206 -3.27208,5.972 -4.27559,9.0567c-1.851,5.68971 -6.25533,10.12119 -10.51445,14.32343a29.23729,29.23729 0 0 1 -4.51458,3.885a14.70454,14.70454 0 0 1 -8.21614,2.33991a9.01809,9.01809 0 0 1 -3.70077,-0.76608c-2.91461,-1.38405 -4.39595,-4.75441 -4.69958,-7.96663a16.94606,16.94606 0 0 1 1.41791,-8.52067c3.86944,-8.57162 13.806,-12.286 20.8296,-18.54016c4.11852,-3.66733 7.268,-8.27388 10.37423,-12.83053a44.3482,44.3482 0 0 0 5.24664,-9.19651c1.56856,-4.1853 0.958,-9.14 2.32838,-13.39438c0.57924,-1.79831 1.60907,-3.42206 2.23191,-5.20575s0.77965,-3.90108 -0.3099,-5.44457a7.91291,7.91291 0 0 0 -3.053,-2.23512c-4.48682,-2.27727 -9.512,-5.208 -10.37073,-10.16587a10.89135,10.89135 0 0 1 2.009,-7.7643a32.34965,32.34965 0 0 1 5.658,-5.9298c1.96232,-1.73519 5.26232,-3.68697 7.22471,-5.42217z"/>
  <path id="svg_31" fill="#a0616a" d="m597.12595,199.48054c-1.19067,-2.40519 -2.67924,-4.85908 -5.08185,-6.055a9.3643,9.3643 0 0 0 -7.38681,-0.031a27.77387,27.77387 0 0 0 -6.48258,3.92l-5.81223,4.2845a14.30746,14.30746 0 0 0 -3.45068,3.18519a13.445,13.445 0 0 0 -1.79721,4.9309a35.24648,35.24648 0 0 0 -0.91381,12.19665c0.92237,6.55436 4.874,12.27645 9.2235,17.26569c2.71786,3.11763 6.07342,6.26381 10.20727,6.39679c1.78442,0.0574 3.76894,-0.64595 4.51109,-2.26973a5.66071,5.66071 0 0 0 0.4029,-2.02241c0.44655,-7.31074 -2.16868,-14.45162 -5.21837,-21.11087a13.53562,13.53562 0 0 1 -1.68258,-5.67278a1.55649,1.55649 0 0 1 0.24848,-0.95008a1.60487,1.60487 0 0 1 0.99225,-0.48447c4.17406,-0.82563 11.36369,2.417 14.29187,-2.21832c1.89828,-3.00497 -0.70226,-8.64006 -2.05124,-11.36506z"/>
  <path id="svg_32" fill="#3f3d56" d="m683.03048,92.44029a3.77334,3.77334 0 0 1 0.25665,-1.76012c0.66866,-1.18232 2.41467,-0.86054 3.73176,-0.52848c5.29675,1.33539 10.87784,0.1266 16.33142,0.43857s11.59665,3.03834 12.69319,8.38964a39.82421,39.82421 0 0 0 10.06862,-10.34535c1.51354,-2.265 2.83281,-4.85939 2.62676,-7.57576c-0.29719,-3.91795 -3.58443,-6.84809 -6.62818,-9.33288l-9.07325,-7.407a13.67243,13.67243 0 0 0 -4.06246,-2.58281c-2.09521,-0.716 -4.38006,-0.37487 -6.59423,-0.37345c-6.60471,0.00424 -13.64661,-3.00156 -19.52069,0.01793c-2.45374,1.26131 -4.30061,3.42276 -6.081,5.53033l-8.098,9.5859a5.12052,5.12052 0 0 0 -1.29446,2.1951c-0.2304,1.17009 0.3705,2.32485 0.5802,3.49883c0.38251,2.14149 -0.53985,4.427 0.16926,6.48354c1.17724,3.41413 5.32258,3.89742 7.85687,5.85471c0.94453,0.72948 2.42486,3.20174 3.55024,3.17154c2.03045,-0.05447 3.4345,-3.68268 3.4873,-5.26024z"/>
  <path id="svg_33" fill="#3f3d56" d="m627.95397,163.50477a10.54147,10.54147 0 0 0 -2.71427,2.52676c-0.95075,1.43748 -1.144,3.25221 -1.96067,4.76986c-1.74763,3.24756 -5.83525,4.40291 -8.38524,7.06719a2.63985,2.63985 0 0 0 -0.80573,1.38233a3.08046,3.08046 0 0 0 0.685,1.98968l12.2967,19.33156c4.09421,0.36049 8.022,-2.20459 12.11795,-1.86409c1.52934,0.12714 3.09428,0.65537 4.56084,0.20344a13.07872,13.07872 0 0 0 2.92677,-1.78995c2.44364,-1.54511 5.69824,-1.72514 7.74839,-3.76367c1.96752,-1.95638 2.21856,-5.01729 2.1951,-7.79183a31.32083,31.32083 0 0 0 -0.731,-7.16784c-1.81038,-7.4202 -7.4854,-13.11448 -11.04309,-19.6874c-1.732,-3.2 -2.67447,-5.07329 -6.34043,-2.87609c-3.68498,2.20856 -7.08233,5.13397 -10.55032,7.67005z"/>
  <path id="svg_34" fill="#3f3d56" d="m777.29541,153.72883a28.76856,28.76856 0 0 1 6.18619,5.41859c1.8733,2.41546 2.93429,5.37159 4.73378,7.84253c1.74423,2.39506 4.11855,4.25 6.097,6.45546c3.00044,3.34471 5.03276,7.42523 7.02849,11.451a171.06454,171.06454 0 0 1 -15.90617,17.97709a5.13016,5.13016 0 0 1 -2.41525,1.58771a3.89625,3.89625 0 0 1 -3.4144,-1.392c-0.8856,-0.92913 -1.51328,-2.07458 -2.35992,-3.03935a12.16158,12.16158 0 0 0 -7.51787,-3.636a51.63193,51.63193 0 0 0 -8.51782,-0.1173a3.36749,3.36749 0 0 1 -1.81916,-0.30572a3.05586,3.05586 0 0 1 -0.99258,-1.13851c-3.32929,-5.66523 -2.25842,-12.77808 -1.08383,-19.24332l2.69526,-14.83537a33.29654,33.29654 0 0 1 2.24318,-8.2452c1.02073,-2.18173 3.30366,-5.88142 6.11056,-5.22828c2.82958,0.65837 6.55201,4.7364 8.93254,6.44867z"/>
  <ellipse id="svg_35" fill="#fff" ry="41.07457" rx="41" cy="210.06613" cx="283.95419"/>
  <path id="svg_36" fill="#57b894" d="m283.95419,161.99156a49,49 0 1 0 49,49a49.14406,49.14406 0 0 0 -49,-49zm-10.05913,75.12548l-25.1125,-25.11251l7.04374,-7.04374l18.09233,18.09231l38.187,-38.187l7.04375,7.04375l-45.25433,45.20721l0.00001,-0.00002z"/>
 </g>
</svg>