<svg height="512" viewBox="0 0 64 64" width="512" xmlns="http://www.w3.org/2000/svg"><g id="computer_coding" data-name="computer coding"><path d="m41 57 3 4h-24l3-4h2 14z" fill="#00e7f0"/><path d="m38 51 1 6h-14l1-6h5z" fill="#ffeb99"/><path d="m31 45h-28v4a2.006 2.006 0 0 0 2 2h54a2.006 2.006 0 0 0 2-2v-4z" fill="#00e7f0"/><path d="m61 17v28h-58v-28a2.006 2.006 0 0 1 2-2h54a2.006 2.006 0 0 1 2 2z" fill="#57a4ff"/><path d="m61 17v28h-2v-28a2.006 2.006 0 0 0 -2-2h2a2.006 2.006 0 0 1 2 2z" fill="#2488ff"/><path d="m61 45v4a2.006 2.006 0 0 1 -2 2h-2a2.006 2.006 0 0 0 2-2v-4z" fill="#00b6bd"/><path d="m44 61h-2l-3-4h2z" fill="#00b6bd"/><path d="m31 37v2a2.006 2.006 0 0 1 -2 2h-18a2.006 2.006 0 0 1 -2-2v-34a2.006 2.006 0 0 1 2-2h18a2.006 2.006 0 0 1 2 2z" fill="#ffdaaa"/><path d="m40.293 31.707 1.414-1.414-5.293-5.293 5.293-5.293-1.414-1.414-6 6a1 1 0 0 0 0 1.414z"/><path d="m51.707 31.707 6-6a1 1 0 0 0 0-1.414l-6-6-1.414 1.414 5.293 5.293-5.293 5.293z"/><path d="m34 40h2v2h-2z"/><path d="m38 40h20v2h-20z"/><path d="m34 36h20v2h-20z"/><path d="m56 36h2v2h-2z"/><path d="m37.456 24h17.088v2h-17.088z" transform="matrix(.351 -.936 .936 .351 6.444 59.298)"/><path d="m13 19h3v3a1 1 0 0 0 1 1h2v5a1 1 0 0 0 1 1h8v-2h-7v-4h3v-2h-6v-2h1v-2h-5v-3h-2v4a1 1 0 0 0 1 1z"/><path d="m13 34h2v3a1 1 0 0 0 1 1h12v-2h-11v-2h2v-2h-5v-3h-2v4a1 1 0 0 0 1 1z"/><path d="m13 11h12v-2h-11v-3h-2v4a1 1 0 0 0 1 1z"/><path d="m31 47h2v2h-2z"/><path d="m59 14h-27v-9a3 3 0 0 0 -3-3h-18a3 3 0 0 0 -3 3v9h-3a3 3 0 0 0 -3 3v32a3 3 0 0 0 3 3h19.82l-.667 4h-1.153a1 1 0 0 0 -.8.4l-3 4a1 1 0 0 0 .8 1.6h24a1 1 0 0 0 .8-1.6l-3-4a1 1 0 0 0 -.8-.4h-1.153l-.667-4h19.82a3 3 0 0 0 3-3v-32a3 3 0 0 0 -3-3zm-49-9a1 1 0 0 1 1-1h18a1 1 0 0 1 1 1v34a1 1 0 0 1 -1 1h-18a1 1 0 0 1 -1-1zm-5 11h3v23a3 3 0 0 0 3 3h18a3 3 0 0 0 3-3v-23h27a1 1 0 0 1 1 1v27h-56v-27a1 1 0 0 1 1-1zm37 44h-20l1.5-2h17zm-4.18-4h-11.64l.667-4h10.306zm21.18-6h-54a1 1 0 0 1 -1-1v-3h56v3a1 1 0 0 1 -1 1z"/></g></svg>